<svg width="22px" height="22px"  xmlns="http://www.w3.org/2000/svg">
  <path d="M21.5811 8.02241C21.7827 8.64986 21.6259 9.14286 21.1333 9.52381L16.05 13.3782L17.9982 19.6527C18.2445 20.5266 17.5951 21.3333 16.789 21.3333C16.5202 21.3333 16.2739 21.2437 16.05 21.0644L10.9891 17.2101L5.92816 21.0644C5.65683 21.2484 5.32602 21.323 5.00207 21.2731C4.67812 21.2232 4.38499 21.0526 4.18147 20.7955C4.05055 20.6394 3.96468 20.4504 3.93311 20.249C3.90154 20.0476 3.92547 19.8414 4.00233 19.6527L5.92816 13.423L0.844859 9.52381C0.374598 9.14286 0.217844 8.64986 0.419384 8.02241C0.598532 7.48459 1.06879 7.12605 1.58384 7.12605H7.85399L9.80222 0.87395C9.95897 0.358543 10.4292 0 10.9667 0C11.5265 0 12.0192 0.380952 12.1759 0.918768L14.1241 7.12605H20.3943C20.9317 7.12605 21.402 7.48459 21.5811 8.02241Z" fill="#EAECF0"/>
</svg>
